<svg xmlns="http://www.w3.org/2000/svg" id="key" enable-background="new 0 0 500 500" viewBox="0 0 500 500">
  <path fill="#fd9d4c" d="M272.5,217.3c4.1,1.3,8.3,2.3,12.5,3c12.7,2,25.8,1,38.1-3c33.8-11,56.5-42.2,56.5-77.9
		c0-45.1-36.7-81.8-81.8-81.8c-45.1,0-81.8,36.7-81.8,81.8C216,175,238.7,206.3,272.5,217.3z M297.8,83.5
		c19.2,0,34.7,15.6,34.7,34.7c0,19.2-15.6,34.7-34.7,34.7c-19.2,0-34.7-15.6-34.7-34.7C263,99.1,278.6,83.5,297.8,83.5z"></path>
  <path fill="#fdc960" d="M312.8,236.6c-0.3,0-0.7,0.1-1,0.1c-1.2,0.2-2.4,0.3-3.6,0.4c-0.4,0-0.8,0.1-1.3,0.1
		c-1.2,0.1-2.4,0.2-3.6,0.3c-0.3,0-0.7,0-1,0.1c-1.5,0.1-3.1,0.1-4.6,0.1s-3.1,0-4.6-0.1c-0.3,0-0.7,0-1-0.1
		c-1.2-0.1-2.4-0.2-3.6-0.3c-0.4,0-0.8-0.1-1.2-0.1c-1.2-0.1-2.4-0.3-3.6-0.4c-0.3,0-0.7-0.1-1-0.1c-1.5-0.2-3-0.5-4.4-0.8
		c0,0-0.1,0-0.2,0v31.3l6.5,6.5c4.3,4.3,6.7,10.1,6.7,16.2c0,6.1-2.4,11.9-6.7,16.2l-6.3,6.3l6.3,6.3c8.9,8.9,8.9,23.5,0,32.4
		l-6.5,6.5v35.6l20.3,20.6l18.9-20.4V235.8c-0.1,0-0.1,0-0.2,0C315.7,236.1,314.2,236.4,312.8,236.6z"></path>
  <path fill="#332195" d="M261.7,230.9v36.3c0,4.3,1.7,8.4,4.7,11.4l6.6,6.6c2.5,2.5,2.5,6.6,0,9.1l-6.6,6.6c-3,3-4.7,7.1-4.7,11.4
		c0,4.3,1.7,8.4,4.7,11.4l6.6,6.6c2.5,2.5,2.5,6.6,0,9.1l-6.6,6.6c-3,3-4.7,7.1-4.7,11.4v35.9c0,4.2,1.6,8.1,4.6,11.2l20.8,21.1
		c3,3,7.1,4.8,11.4,4.8c0.1,0,0.1,0,0.2,0c4.3-0.1,8.5-1.9,11.5-5.1l19.4-21c2.7-3,4.2-6.8,4.2-10.8V230.9
		c37.5-14.7,62.3-50.7,62.3-91.5c0-54.2-44.1-98.3-98.3-98.3c-54.2,0-98.3,44.1-98.3,98.3C199.5,180.2,224.2,216.2,261.7,230.9z
		 M317.4,393.2l-18.9,20.4l-20.3-20.6v-35.6l6.5-6.5c8.9-8.9,8.9-23.5,0-32.4l-6.3-6.3l6.3-6.3c4.3-4.3,6.7-10.1,6.7-16.2
		c0-6.1-2.4-11.9-6.7-16.2l-6.5-6.5v-31.3c0,0,0.1,0,0.2,0c1.5,0.3,3,0.6,4.4,0.8c0.3,0,0.7,0.1,1,0.1c1.2,0.2,2.4,0.3,3.6,0.4
		c0.4,0,0.8,0.1,1.2,0.1c1.2,0.1,2.4,0.2,3.6,0.3c0.3,0,0.6,0,1,0.1c1.5,0.1,3.1,0.1,4.6,0.1s3.1,0,4.6-0.1c0.3,0,0.6,0,1-0.1
		c1.2-0.1,2.4-0.2,3.6-0.3c0.4,0,0.8-0.1,1.3-0.1c1.2-0.1,2.4-0.3,3.6-0.4c0.3,0,0.7-0.1,1-0.1c1.5-0.2,3-0.5,4.4-0.8
		c0.1,0,0.1,0,0.2,0V393.2z M297.8,57.6c45.1,0,81.8,36.7,81.8,81.8c0,35.6-22.7,66.9-56.5,77.9c-12.2,4-25.4,4.9-38.1,3
		c-4.2-0.7-8.4-1.6-12.5-3c-33.8-11-56.6-42.2-56.6-77.9C216,94.3,252.7,57.6,297.8,57.6z"></path>
  <path fill="#332195" d="M297.8 153c19.2 0 34.7-15.6 34.7-34.7 0-19.2-15.6-34.7-34.7-34.7-19.2 0-34.7 15.6-34.7 34.7C263 137.4 278.6 153 297.8 153zM297.8 100c10.1 0 18.2 8.2 18.2 18.2 0 10.1-8.2 18.2-18.2 18.2-10.1 0-18.2-8.2-18.2-18.2C279.5 108.2 287.7 100 297.8 100zM214 364.3c8 0 16 0 24 0 10.6 0 10.6-16.5 0-16.5-17.5 0-48.5-6.1-56.2 15.3-2.9 8-1.5 18.1-1.5 26.4 0 6.6 0 13.3 0 19.9-9.7 3.6-16.7 12.9-16.7 23.9 0 14.1 11.4 25.5 25.5 25.5s25.5-11.4 25.5-25.5c0-11.4-7.6-21.2-18-24.4-.4-12.1-1.4-24.8.2-36.5C198.2 362.6 206.5 364.3 214 364.3zM198.2 433.4c0 5-4 9-9 9-5 0-9-4-9-9 0-4.1 2.8-7.5 6.6-8.6 1.4.3 2.9.2 4.4-.2C195.1 425.5 198.2 429.1 198.2 433.4z"></path>
  <path fill="#332195" d="M150 311.4c28.7-1.9 58.1 0 86.8 0 10.6 0 10.6-16.5 0-16.5-30.1 0-60.7-1.7-90.8 0-22.3 1.3-23.6 20.4-23.6 37.7 0 14.4 0 28.8 0 43.3-9.5 3.7-16.3 12.9-16.3 23.8 0 14.1 11.4 25.5 25.5 25.5 14.1 0 25.5-11.4 25.5-25.5 0-11.5-7.7-21.3-18.2-24.4 0-11.7 0-23.4 0-35.2 0-6.6-1-14.2 0-20.7C140.1 311.9 144.3 311.8 150 311.4zM140.7 399.6c0 5-4 9-9 9-5 0-9-4-9-9 0-5 4-9 9-9C136.6 390.6 140.7 394.7 140.7 399.6zM119.4 192.4c-.1 12.7-.4 25.5 0 38.2.5 16.7 11.4 25.4 27.5 25.6 29.2.4 58.5 0 87.7 0 10.6 0 10.6-16.5 0-16.5-26.5 0-53 0-79.6 0-3.7 0-8.1.6-11.7 0-7.8-1.4-7.4-7.2-7.4-13.2 0-11 0-22 0-33 10.9-2.9 19-12.8 19-24.6 0-14.1-11.4-25.5-25.5-25.5s-25.5 11.4-25.5 25.5C103.9 179.5 110.3 188.5 119.4 192.4zM129.4 160c5 0 9 4 9 9 0 5-4 9-9 9-5 0-9-4-9-9C120.4 164 124.4 160 129.4 160z"></path>
</svg>
